HIERARCHY
ROOT Hips
{
	OFFSET 0.000000 0.000000 0.000000
	CHANNELS 6 Xposition Yposition Zposition Xrotation Yrotation Zrotation
	JOINT LeftUpLeg_virtual
	{
		OFFSET 0.000000 0.000000 0.000000
		CHANNELS 3 Xrotation Yrotation Zrotation
		JOINT LeftUpLeg
		{
			OFFSET 13.026900 -6.336304 -1.092800
			CHANNELS 3 Xrotation Yrotation Zrotation
			JOINT LeftLeg
			{
				OFFSET 0.524474 -46.096886 9.782700
				CHANNELS 3 Xrotation Yrotation Zrotation
				JOINT LeftFoot
				{
					OFFSET -0.524474 -53.427422 -12.948200
					CHANNELS 3 Xrotation Yrotation Zrotation
					JOINT LeftToeBase
					{
						OFFSET 0.192200 -14.009700 16.364100
						CHANNELS 3 Xrotation Yrotation Zrotation
						JOINT LeftToe_End
						{
							OFFSET -1.784700 -0.561700 9.474800
							CHANNELS 3 Xrotation Yrotation Zrotation
							End Site
							{
								OFFSET 0 0 0
							}
						}
					}
				}
			}
		}
	}
	JOINT RightUpLeg_virtual
	{
		OFFSET 0.000000 0.000000 0.000000
		CHANNELS 3 Xrotation Yrotation Zrotation
		JOINT RightUpLeg
		{
			OFFSET -12.883000 -6.336304 -1.092800
			CHANNELS 3 Xrotation Yrotation Zrotation
			JOINT RightLeg
			{
				OFFSET -0.524587 -46.096825 9.782800
				CHANNELS 3 Xrotation Yrotation Zrotation
				JOINT RightFoot
				{
					OFFSET 0.524587 -53.427383 -12.948300
					CHANNELS 3 Xrotation Yrotation Zrotation
					JOINT RightToeBase
					{
						OFFSET -0.192200 -14.009700 16.364100
						CHANNELS 3 Xrotation Yrotation Zrotation
						JOINT RightToe_End
						{
							OFFSET 1.784700 -0.561700 9.474800
							CHANNELS 3 Xrotation Yrotation Zrotation
							End Site
							{
								OFFSET 0 0 0
							}
						}
					}
				}
			}
		}
	}
	JOINT Spine_virtual
	{
		OFFSET 0.000000 0.000000 0.000000
		CHANNELS 3 Xrotation Yrotation Zrotation
		JOINT Spine
		{
			OFFSET 0.072000 7.257294 -0.789700
			CHANNELS 3 Xrotation Yrotation Zrotation
			JOINT Spine1
			{
				OFFSET 0.000000 12.508769 -0.658067
				CHANNELS 3 Xrotation Yrotation Zrotation
				JOINT Spine1_split
				{
					OFFSET 0.000000 12.508769 -0.658067
					CHANNELS 3 Xrotation Yrotation Zrotation
					JOINT Spine2
					{
						OFFSET 0.000000 12.508769 -0.658067
						CHANNELS 3 Xrotation Yrotation Zrotation
						JOINT Neck_virtual
						{
							OFFSET 0.000000 0.000000 0.000000
							CHANNELS 3 Xrotation Yrotation Zrotation
							JOINT Neck
							{
								OFFSET 0.000000 14.033295 7.520400
								CHANNELS 3 Xrotation Yrotation Zrotation
								JOINT Head
								{
									OFFSET 0.000000 8.198502 5.703100
									CHANNELS 3 Xrotation Yrotation Zrotation
									JOINT HeadTop_End
									{
										OFFSET 0.000000 17.760803 13.332701
										CHANNELS 3 Xrotation Yrotation Zrotation
										End Site
										{
											OFFSET 0 0 0
										}
									}
								}
							}
						}
						JOINT LeftShoulder_virtual
						{
							OFFSET 0.000000 0.000000 0.000000
							CHANNELS 3 Xrotation Yrotation Zrotation
							JOINT LeftShoulder
							{
								OFFSET 6.292450 5.785301 -0.669000
								CHANNELS 3 Xrotation Yrotation Zrotation
								JOINT LeftShoulder_split
								{
									OFFSET 6.292450 5.785301 -0.669000
									CHANNELS 3 Xrotation Yrotation Zrotation
									JOINT LeftArm
									{
										OFFSET 13.907140 -6.093903 1.965100
										CHANNELS 3 Xrotation Yrotation Zrotation
										JOINT LeftForeArm
										{
											OFFSET 34.140198 0.000000 0.000000
											CHANNELS 3 Xrotation Yrotation Zrotation
											JOINT LeftHand
											{
												OFFSET 40.960209 0.000000 0.000000
												CHANNELS 3 Xrotation Yrotation Zrotation
												End Site
												{
													OFFSET 0 0 0
												}
											}
										}
									}
								}
							}
						}
						JOINT RightShoulder_virtual
						{
							OFFSET 0.000000 0.000000 0.000000
							CHANNELS 3 Xrotation Yrotation Zrotation
							JOINT RightShoulder
							{
								OFFSET -6.292450 5.785301 -0.669000
								CHANNELS 3 Xrotation Yrotation Zrotation
								JOINT RightShoulder_split
								{
									OFFSET -6.292450 5.785301 -0.669000
									CHANNELS 3 Xrotation Yrotation Zrotation
									JOINT RightArm
									{
										OFFSET -13.907140 -6.093903 1.965100
										CHANNELS 3 Xrotation Yrotation Zrotation
										JOINT RightForeArm
										{
											OFFSET -34.140198 0.000000 0.000000
											CHANNELS 3 Xrotation Yrotation Zrotation
											JOINT RightHand
											{
												OFFSET -40.960209 0.000000 0.000000
												CHANNELS 3 Xrotation Yrotation Zrotation
												End Site
												{
													OFFSET 0 0 0
												}
											}
										}
									}
								}
							}
						}
					}
				}
			}
		}
	}
}
MOTION
Frames: 9
Frame Time: 0.03333333
4.464212 10.511757 6.428299 0.000000 0.000000 0.000000 87.460101 0.090684 1.357106 -11.488812 6.674644 9.288773 16.514501 10.112231 1.532208 45.073617 27.876297 -18.786526 3.735895 0.280657 4.664092 0.000000 0.000000 0.000000 87.460101 0.090684 1.357106 -12.281177 -7.628006 -12.082288 18.583294 -9.156938 -0.184810 43.859817 -27.732395 28.169969 13.098546 -1.723604 -10.859621 0.000000 0.000000 0.000000 87.460101 0.090684 1.357106 3.816403 0.564452 -1.421019 0.793247 0.138199 -0.141419 0.000000 0.000000 0.000000 0.000000 0.000000 0.000000 0.792545 0.141294 -0.141442 -5.136620 -13.863059 6.464564 -18.401138 -57.031007 -18.459169 0.000000 0.000000 0.000000 0.792545 0.141294 -0.141442 3.766320 -21.296513 -1.256997 0.000000 0.000000 0.000000 15.600388 -18.626728 -61.954460 0.000011 -18.654952 0.000008 0.000000 0.000000 0.000000 0.792545 0.141294 -0.141442 0.640288 15.700658 9.197080 0.000000 0.000000 0.000000 13.898638 -3.320476 53.523500 0.000003 31.875318 -0.000002 0.000000 0.000000 0.000000 
4.463099 10.516884 6.427635 0.000000 0.000000 0.000000 87.458353 0.098922 1.362597 -11.493281 6.674847 9.281914 16.520322 10.112058 1.540817 45.060158 27.900075 -18.852034 3.805778 0.288576 4.727515 0.000000 0.000000 0.000000 87.458353 0.098922 1.362597 -12.287088 -7.631554 -12.092424 18.592274 -9.156688 -0.178654 43.865630 -27.730862 28.169958 13.100123 -1.720141 -10.848420 0.000000 0.000000 0.000000 87.458353 0.098922 1.362597 3.815383 0.557768 -1.422133 0.792723 0.136766 -0.140974 0.000000 0.000000 0.000000 0.000000 0.000000 0.000000 0.792048 0.139859 -0.141001 -5.125216 -13.862459 6.457382 -18.396667 -57.041683 -18.453996 0.000000 0.000000 0.000000 0.792048 0.139859 -0.141001 3.780981 -21.376645 -1.256569 0.000000 0.000000 0.000000 15.556881 -18.576986 -61.979691 -0.000006 -18.573197 -0.000004 0.000000 0.000000 0.000000 0.792048 0.139859 -0.141001 0.640460 15.698719 9.195480 0.000000 0.000000 0.000000 13.865608 -3.329054 53.534924 0.000020 31.844015 0.000001 0.000000 0.000000 0.000000 
4.460917 10.525246 6.424179 0.000000 0.000000 0.000000 87.471965 0.101412 1.372313 -11.507192 6.662524 9.259436 16.511366 10.111170 1.560275 45.076807 27.908411 -18.861764 3.799258 0.287125 4.715578 0.000000 0.000000 0.000000 87.471965 0.101412 1.372313 -12.311512 -7.629538 -12.103680 18.613987 -9.153934 -0.185056 43.824816 -27.726678 28.272742 13.302484 -1.753213 -10.936225 0.000000 0.000000 0.000000 87.471965 0.101412 1.372313 3.801270 0.554320 -1.422387 0.789348 0.135991 -0.140070 0.000000 0.000000 0.000000 0.000000 0.000000 0.000000 0.788648 0.139073 -0.140101 -5.121945 -13.861129 6.450678 -18.398298 -57.039750 -18.468010 0.000000 0.000000 0.000000 0.788648 0.139073 -0.140101 3.778152 -21.356436 -1.261998 0.000000 0.000000 0.000000 15.442663 -18.624193 -61.994793 -0.000008 -18.349249 0.000001 0.000000 0.000000 0.000000 0.788648 0.139073 -0.140101 0.641335 15.722652 9.188438 0.000000 0.000000 0.000000 13.818462 -3.398202 53.553150 0.000018 31.811483 -0.000004 0.000000 0.000000 0.000000 
4.461496 10.532516 6.417816 0.000000 0.000000 0.000000 87.435321 0.101023 1.366958 -11.481394 6.677835 9.274024 16.520421 10.111203 1.553503 45.076889 27.908423 -18.832882 3.764618 0.282080 4.675445 0.000000 0.000000 0.000000 87.435321 0.101023 1.366958 -12.281207 -7.631605 -12.095688 18.626829 -9.153878 -0.187007 43.805650 -27.726168 28.272385 13.339599 -1.753993 -10.935603 0.000000 0.000000 0.000000 87.435321 0.101023 1.366958 3.831533 0.557271 -1.410026 0.796335 0.136676 -0.137240 0.000000 0.000000 0.000000 0.000000 0.000000 0.000000 0.795648 0.139802 -0.137271 -5.115524 -13.859016 6.442780 -18.374899 -57.041512 -18.453873 0.000000 0.000000 0.000000 0.795648 0.139802 -0.137271 3.802403 -21.484643 -1.265547 0.000000 0.000000 0.000000 15.394049 -18.473812 -62.000291 -0.000003 -18.315620 -0.000007 0.000000 0.000000 0.000000 0.795648 0.139802 -0.137271 0.639796 15.714030 9.202236 0.000000 0.000000 0.000000 13.755831 -3.457566 53.523480 -0.000007 31.811606 0.000008 0.000000 0.000000 0.000000 
4.461469 10.539207 6.418694 0.000000 0.000000 0.000000 87.424687 0.107325 1.375614 -11.469096 6.674780 9.255351 16.513963 10.111066 1.574153 45.059636 27.933262 -18.913431 3.860452 0.294126 4.771193 0.000000 0.000000 0.000000 87.424687 0.107325 1.375614 -12.272259 -7.640283 -12.107037 18.622772 -9.154888 -0.183192 43.800504 -27.723523 28.310595 13.444019 -1.773923 -10.989612 0.000000 0.000000 0.000000 87.424687 0.107325 1.375614 3.836544 0.555982 -1.406677 0.797282 0.136420 -0.135579 0.000000 0.000000 0.000000 0.000000 0.000000 0.000000 0.796599 0.139557 -0.135615 -5.093110 -13.856132 6.435025 -18.387496 -57.044026 -18.458506 0.000000 0.000000 0.000000 0.796599 0.139557 -0.135615 3.808576 -21.523224 -1.260003 0.000000 0.000000 0.000000 15.410515 -18.505300 -62.022796 -0.000001 -18.313791 0.000002 0.000000 0.000000 0.000000 0.796599 0.139557 -0.135615 0.641780 15.719344 9.184082 0.000000 0.000000 0.000000 13.639656 -3.519263 53.527339 -0.000001 31.722226 0.000012 0.000000 0.000000 0.000000 
4.461619 10.547333 6.413078 0.000000 0.000000 0.000000 87.412112 0.109167 1.378865 -11.465504 6.677085 9.253960 16.518418 10.110419 1.574575 45.063536 27.915205 -18.873390 3.842559 0.289581 4.734790 0.000000 0.000000 0.000000 87.412112 0.109167 1.378865 -12.268820 -7.636684 -12.106765 18.642260 -9.153129 -0.192213 43.767873 -27.720319 28.394469 13.625735 -1.802330 -11.062804 0.000000 0.000000 0.000000 87.412112 0.109167 1.378865 3.846434 0.561176 -1.396615 0.799432 0.137561 -0.132770 0.000000 0.000000 0.000000 0.000000 0.000000 0.000000 0.798724 0.140732 -0.132814 -5.080574 -13.854059 6.423678 -18.403251 -57.051928 -18.465374 0.000000 0.000000 0.000000 0.798724 0.140732 -0.132814 3.808955 -21.529496 -1.255332 0.000000 0.000000 0.000000 15.270852 -18.563739 -62.066414 -0.000000 -18.050098 -0.000001 0.000000 0.000000 0.000000 0.798724 0.140732 -0.132814 0.641633 15.753512 9.186985 0.000000 0.000000 0.000000 13.578803 -3.655355 53.512954 -0.000007 31.738431 -0.000002 0.000000 0.000000 0.000000 
4.459284 10.554665 6.408312 0.000000 0.000000 0.000000 87.380420 0.114410 1.375553 -11.445713 6.690811 9.265406 16.525441 10.110477 1.574676 45.065025 27.927354 -18.892307 3.850206 0.290972 4.746120 0.000000 0.000000 0.000000 87.380420 0.114410 1.375553 -12.241857 -7.638131 -12.101231 18.650361 -9.153750 -0.189400 43.773173 -27.718887 28.381507 13.605698 -1.793424 -11.036822 0.000000 0.000000 0.000000 87.380420 0.114410 1.375553 3.876517 0.565141 -1.386782 0.806064 0.138515 -0.129919 0.000000 0.000000 0.000000 0.000000 0.000000 0.000000 0.805398 0.141739 -0.129964 -5.081884 -13.856057 6.421341 -18.386507 -57.062139 -18.465748 0.000000 0.000000 0.000000 0.805398 0.141739 -0.129964 3.824566 -21.615419 -1.253495 0.000000 0.000000 0.000000 15.247685 -18.523862 -62.068388 -0.000005 -18.035321 0.000008 0.000000 0.000000 0.000000 0.805398 0.141739 -0.129964 0.638369 15.734283 9.216218 0.000000 0.000000 0.000000 13.527997 -3.745854 53.461264 0.000013 31.790296 -0.000005 0.000000 0.000000 0.000000 
4.456910 10.561684 6.406931 0.000000 0.000000 0.000000 87.388746 0.132563 1.387450 -11.457618 6.680667 9.243799 16.517544 10.109872 1.588939 45.056449 27.930740 -18.901305 3.892232 0.296650 4.790740 0.000000 0.000000 0.000000 87.388746 0.132563 1.387450 -12.249085 -7.644705 -12.113904 18.655145 -9.151031 -0.193415 43.739442 -27.713687 28.517971 13.881932 -1.845957 -11.175674 0.000000 0.000000 0.000000 87.388746 0.132563 1.387450 3.860421 0.548503 -1.387737 0.802974 0.134819 -0.129768 0.000000 0.000000 0.000000 0.000000 0.000000 0.000000 0.802297 0.138018 -0.129803 -5.059090 -13.854107 6.414519 -18.425726 -57.058396 -18.513860 0.000000 0.000000 0.000000 0.802297 0.138018 -0.129803 3.839954 -21.674178 -1.280356 0.000000 0.000000 0.000000 15.274617 -18.489821 -62.028342 0.000011 -18.047926 0.000002 0.000000 0.000000 0.000000 0.802297 0.138018 -0.129803 0.639273 15.753555 9.208552 0.000000 0.000000 0.000000 13.436844 -3.857334 53.458545 -0.000032 31.770427 0.000016 0.000000 0.000000 0.000000 
4.458058 10.568474 6.402298 0.000000 0.000000 0.000000 87.370380 0.144839 1.384807 -11.458842 6.684124 9.247629 16.529061 10.110053 1.594553 45.079740 27.938674 -18.904312 3.884274 0.293171 4.763208 0.000000 0.000000 0.000000 87.370380 0.144839 1.384807 -12.246563 -7.644823 -12.115518 18.679393 -9.148793 -0.190859 43.742499 -27.712581 28.503190 13.878850 -1.838250 -11.152633 0.000000 0.000000 0.000000 87.370380 0.144839 1.384807 3.871295 0.534016 -1.376993 0.805711 0.131642 -0.127192 0.000000 0.000000 0.000000 0.000000 0.000000 0.000000 0.805063 0.134854 -0.127217 -5.048671 -13.850025 6.399805 -18.392398 -57.060544 -18.492198 0.000000 0.000000 0.000000 0.805063 0.134854 -0.127217 3.873749 -21.827741 -1.310853 0.000000 0.000000 0.000000 15.081975 -18.263957 -62.035002 0.000011 -17.759153 0.000004 0.000000 0.000000 0.000000 0.805063 0.134854 -0.127217 0.635138 15.730785 9.245790 0.000000 0.000000 0.000000 13.419484 -3.894469 53.377922 0.000005 31.833992 -0.000006 0.000000 0.000000 0.000000 
